<svg xmlns="http://www.w3.org/2000/svg" viewBox="0 0 84.32 95.95"><defs><style>.cls-1{fill:#4b3727;}.cls-2{fill:#785d47;}.cls-3{fill:#664e38;}</style></defs><title>资源 10</title><g id="图层_2" data-name="图层 2"><g id="图层_1-2" data-name="图层 1"><polygon class="cls-1" points="84.32 32.13 84.28 0 84.28 0 84.28 0 84.18 32.13 84.32 32.13"/><polygon class="cls-1" points="0.14 32.13 0.04 0 0.04 0 0.04 0 0 32.13 0.14 32.13"/><polygon class="cls-2" points="42.3 95.95 0 95.95 0 95.95 0 32.13 0 32.13 0 32.13 42.3 95.95"/><path class="cls-3" d="M0,32.13,42.3,96l42-63.82ZM52,55.62H29.74a6.34,6.34,0,0,1-6.34-6.34v-.77a6.34,6.34,0,0,1,6.34-6.34H52a6.34,6.34,0,0,1,6.34,6.34v.77A6.34,6.34,0,0,1,52,55.62Z"/><polygon class="cls-2" points="42.16 95.95 84.18 95.95 84.18 95.95 84.32 32.13 84.32 32.13 84.32 32.13 42.16 95.95"/></g></g></svg>