<svg xmlns="http://www.w3.org/2000/svg" viewBox="0 0 99.01 108.68"><defs><style>.cls-1{fill:#785d47;}.cls-2{fill:#664e38;}.cls-3{fill:#3b2c22;}.cls-4{fill:#534131;}</style></defs><title>资源 1</title><g id="图层_2" data-name="图层 2"><g id="图层_1-2" data-name="图层 1"><polygon class="cls-1" points="42.3 108.68 0.14 108.68 0.14 108.68 0 44.86 0 44.86 0 44.86 42.3 108.68"/><path class="cls-2" d="M0,44.86l42.16,63.82L84.32,44.86ZM53.29,67.79H31a6.34,6.34,0,0,1-6.34-6.34v-.77A6.34,6.34,0,0,1,31,54.34H53.29a6.34,6.34,0,0,1,6.34,6.34v.77A6.34,6.34,0,0,1,53.29,67.79Z"/><polygon class="cls-1" points="42.16 108.68 84.18 108.68 84.18 108.68 84.32 44.86 84.32 44.86 84.32 44.86 42.16 108.68"/><polygon class="cls-3" points="84.18 108.68 84.18 108.68 84.18 44.86 99.01 0 84.18 108.68"/><polygon class="cls-4" points="99.01 0 99.01 63.82 84.18 108.68 99.01 0 99.01 0 99.01 0 99.01 0"/></g></g></svg>