<svg xmlns="http://www.w3.org/2000/svg" viewBox="0 0 99.01 108.68"><defs><style>.cls-1{fill:#785d47;}.cls-2{fill:#664e38;}.cls-3{fill:#3b2c22;}.cls-4{fill:#534131;}</style></defs><title>资源 6</title><g id="图层_2" data-name="图层 2"><g id="图层_1-2" data-name="图层 1"><polygon class="cls-1" points="99.01 44.86 99.01 44.86 99.01 44.86 98.87 108.68 98.87 108.68 56.71 108.68 99.01 44.86"/><path class="cls-2" d="M14.69,44.86l42.16,63.82L99,44.86ZM39.38,61.45v-.77a6.34,6.34,0,0,1,6.34-6.34H68a6.34,6.34,0,0,1,6.34,6.34v.77A6.34,6.34,0,0,1,68,67.79H45.72A6.34,6.34,0,0,1,39.38,61.45Z"/><polygon class="cls-1" points="14.69 44.86 14.69 44.86 14.69 44.86 14.83 108.68 14.83 108.68 56.85 108.68 14.69 44.86"/><polygon class="cls-3" points="0 0 14.83 44.86 14.83 108.68 14.83 108.68 0 0"/><polygon class="cls-4" points="0 0 0 0 0 0 14.83 108.68 0 63.82 0 0 0 0"/></g></g></svg>