<svg xmlns="http://www.w3.org/2000/svg" viewBox="0 0 84.32 108.68"><defs><style>.cls-1{fill:#4b3727;}.cls-2{fill:#785d47;}.cls-3{fill:#664e38;}</style></defs><title>资源 8</title><g id="图层_2" data-name="图层 2"><g id="图层_1-2" data-name="图层 1"><polygon class="cls-1" points="84.32 44.86 84.32 0 84.32 0 84.32 0 84.18 44.86 84.32 44.86"/><polygon class="cls-1" points="0.14 44.86 0 0 0 0 0 0 0 44.86 0.14 44.86"/><polygon class="cls-2" points="42.3 108.68 0.14 108.68 0.14 108.68 0 44.86 0 44.86 0 44.86 42.3 108.68"/><path class="cls-3" d="M0,44.86l42.3,63.82,42-63.82ZM52,68.35H29.74A6.34,6.34,0,0,1,23.4,62v-.77a6.34,6.34,0,0,1,6.34-6.34H52a6.34,6.34,0,0,1,6.34,6.34V62A6.34,6.34,0,0,1,52,68.35Z"/><polygon class="cls-2" points="42.16 108.68 84.18 108.68 84.18 108.68 84.32 44.86 84.32 44.86 84.32 44.86 42.16 108.68"/></g></g></svg>